<?xml version="1.0" encoding="utf-8"?>
<!-- Generator: Adobe Illustrator 18.0.0, SVG Export Plug-In . SVG Version: 6.00 Build 0)  -->
<!DOCTYPE svg PUBLIC "-//W3C//DTD SVG 1.1//EN" "http://www.w3.org/Graphics/SVG/1.1/DTD/svg11.dtd">
<svg version="1.1" id="Layer_1" xmlns="http://www.w3.org/2000/svg" xmlns:xlink="http://www.w3.org/1999/xlink" x="0px" y="0px"
	 width="128px" height="128px" viewBox="0 0 128 128" style="enable-background:new 0 0 128 128;" xml:space="preserve">
<style type="text/css">
	.st0{fill:#605763;}
	.st1{clip-path:url(#SVGID_2_);fill:#504853;}
	.st2{fill:#E6DDCA;}
	.st3{fill:#F79D00;}
	.st4{clip-path:url(#SVGID_4_);fill:#FAB816;}
	.st5{clip-path:url(#SVGID_4_);fill:#EA8723;}
	.st6{fill:#F4C600;}
	.st7{fill:#FFC60B;}
	.st8{fill:#F2E0AC;}
	.st9{fill:#FAA819;}
	.st10{fill:#FFFEF6;}
</style>
<g>
	<circle class="st0" cx="64" cy="64" r="64"/>
	<g>
		<defs>
			<circle id="SVGID_1_" cx="64" cy="64" r="64"/>
		</defs>
		<clipPath id="SVGID_2_">
			<use xlink:href="#SVGID_1_"  style="overflow:visible;"/>
		</clipPath>
		<polygon class="st1" points="28.9,87.7 69.4,128.5 128,128.5 128,67.8 82.6,22.7 38,42.8 43.7,48.5 26,54 		"/>
	</g>
	<path class="st2" d="M81,102.9H49.2c-3.1,0-5.5-2.5-5.5-5.5V37.4h42.8v59.9C86.5,100.4,84,102.9,81,102.9z"/>
	<path class="st2" d="M51.1,92.5h-3.5c-3.9,0-13.9-1.2-18.4-4.7c-3.1-2.5-4.7-9.9-6.1-28.4L23,57.8c-0.5-7,4.7-10,8.3-10.3
		c0.1,0,0.2,0,0.2,0H46c1.7,0,3,1.3,3,3s-1.3,3-3,3H31.7c-1.1,0.2-2.9,0.9-2.7,3.9l0.1,1.6c1.3,18,2.8,23.1,3.8,24.2
		c2.4,1.8,9.9,3.4,14.6,3.4h3.5c1.7,0,3,1.3,3,3S52.7,92.5,51.1,92.5z"/>
	<path class="st3" d="M78.3,96.7H51.9c-2.9,0-5.2-2-5.2-4.6l-0.1-44.7h37L83.5,92C83.5,94.6,81.2,96.7,78.3,96.7z"/>
	<g>
		<defs>
			<path id="SVGID_3_" d="M78.3,96.7H51.9c-2.9,0-5.2-2-5.2-4.6l-0.1-44.7h37L83.5,92C83.5,94.6,81.2,96.7,78.3,96.7z"/>
		</defs>
		<clipPath id="SVGID_4_">
			<use xlink:href="#SVGID_3_"  style="overflow:visible;"/>
		</clipPath>
		<rect x="72.5" y="38.6" class="st4" width="14" height="65.3"/>
		<rect x="43.7" y="38.7" class="st5" width="14" height="65.1"/>
	</g>
	<circle class="st6" cx="66.8" cy="53.7" r="1.2"/>
	<circle class="st7" cx="61.8" cy="60.5" r="1.2"/>
	<circle class="st7" cx="60.8" cy="51.8" r="1.2"/>
	<circle class="st8" cx="75.8" cy="51.5" r="1.2"/>
	<circle class="st8" cx="79.8" cy="82.5" r="1.2"/>
	<circle class="st8" cx="77.8" cy="63.5" r="1.2"/>
	<circle class="st8" cx="79.8" cy="49.5" r="1.2"/>
	<circle class="st9" cx="50.8" cy="52.5" r="1.2"/>
	<circle class="st9" cx="53.8" cy="55.5" r="1.2"/>
	<circle class="st9" cx="50.8" cy="68.5" r="1.2"/>
	<circle class="st9" cx="52.8" cy="86.5" r="1.2"/>
	<circle class="st6" cx="67.8" cy="64.5" r="1.2"/>
	<circle class="st6" cx="62.8" cy="77.5" r="1.2"/>
	<path class="st10" d="M90.5,39.8c1.6-1.3,2.6-3.2,2.6-5.3c0-3.8-3-6.8-6.8-6.9c0-3.8-3.1-6.8-6.9-6.8c-1.7,0-3.2,0.6-4.4,1.6
		c-0.8-2.9-3.5-5-6.6-5c-2.8,0-5.2,1.7-6.3,4.1c-0.9-0.5-2-0.7-3.1-0.7c-2.3,0-4.3,1.1-5.6,2.8c-1.1-0.7-2.4-1.1-3.8-1.1
		c-3.8,0-6.9,3.1-6.9,6.9c0,0.6,0.1,1.1,0.2,1.6c0,0-0.1,0-0.1,0c-3.8,0-6.9,3.1-6.9,6.9s3.1,6.9,6.9,6.9c2.8,0,5.2-1.7,6.3-4.1
		c0.9,0.5,2,0.7,3.1,0.7c1.4,0,2.7-0.4,3.8-1.1c1.2,1.7,3.3,2.8,5.6,2.8c3.2,0,5.8-2.1,6.6-5c1.2,1,2.7,1.6,4.4,1.6
		c1.4,0,2.7-0.4,3.8-1.1c0.9,1.3,2.3,2.2,3.8,2.6c0,0.1,0,0.3,0,0.4c0,2.1,1.7,3.7,3.7,3.7c0.6,0,1.2-0.2,1.7-0.4
		c0.6,1.3,1.9,2.1,3.4,2.1c2.1,0,3.7-1.7,3.7-3.7C92.8,41.7,91.8,40.3,90.5,39.8z"/>
</g>
</svg>
