<?xml version="1.0" encoding="utf-8"?>
<!-- Generator: Adobe Illustrator 18.0.0, SVG Export Plug-In . SVG Version: 6.00 Build 0)  -->
<!DOCTYPE svg PUBLIC "-//W3C//DTD SVG 1.1//EN" "http://www.w3.org/Graphics/SVG/1.1/DTD/svg11.dtd">
<svg version="1.1" id="Layer_1" xmlns="http://www.w3.org/2000/svg" xmlns:xlink="http://www.w3.org/1999/xlink" x="0px" y="0px"
	 width="128px" height="128px" viewBox="0 0 128 128" style="enable-background:new 0 0 128 128;" xml:space="preserve">
<style type="text/css">
	.st0{fill:#008FDF;}
	.st1{clip-path:url(#SVGID_2_);fill:#0075BF;}
	.st2{fill:#FCC100;}
	.st3{fill:#F39200;}
	.st4{fill:#FCFEFF;}
	.st5{fill:#FEC800;}
	.st6{fill:#2B3E53;}
	.st7{fill:#DBEFF8;}
	.st8{fill:#409A35;}
	.st9{clip-path:url(#SVGID_4_);fill:#89BE33;}
	.st10{clip-path:url(#SVGID_4_);fill:#008538;}
	.st11{fill:#C5D320;}
	.st12{fill:#89BE33;}
	.st13{opacity:0.33;}
	.st14{fill:#49779E;}
</style>
<g>
	<circle class="st0" cx="64" cy="64" r="64"/>
	<g>
		<defs>
			<circle id="SVGID_1_" cx="64" cy="64" r="64"/>
		</defs>
		<clipPath id="SVGID_2_">
			<use xlink:href="#SVGID_1_"  style="overflow:visible;"/>
		</clipPath>
		<polygon class="st1" points="26.4,65.1 44.2,82.8 47.3,103.1 72.2,128 128,128 128,88.8 89.1,49.7 70.5,52.5 55.4,37.3 35.5,47 		
			"/>
	</g>
	<g>
		<circle class="st2" cx="41.5" cy="50.9" r="19.4"/>
		<circle class="st3" cx="40.3" cy="51.4" r="19.4"/>
		<circle class="st4" cx="40.3" cy="51.4" r="17.1"/>
		<g>
			<path class="st5" d="M36.7,35.8c-2.5,0.6-4.9,1.8-7,3.6c-0.5,0.4-0.5,1.2,0,1.6l7.3,6.2c0.7,0.6,1.8,0,1.7-0.9L38,36.8
				C37.9,36.1,37.3,35.7,36.7,35.8z M42.7,46.8l6.3-7.4c0.4-0.5,0.3-1.2-0.3-1.6c-2.3-1.4-4.9-2.2-7.5-2.4c-0.6,0-1.2,0.5-1.1,1.1
				l0.8,9.6C40.9,47.1,42.1,47.5,42.7,46.8z M26.8,42.9c-1.5,2.3-2.3,4.9-2.4,7.4c0,0.6,0.5,1.2,1.1,1.1l9.6-0.8
				c0.9-0.1,1.3-1.2,0.6-1.8l-7.3-6.2C27.9,42.2,27.1,42.3,26.8,42.9z M50.6,40.8l-6.3,7.4c-0.6,0.7,0,1.8,0.9,1.7l9.8-0.8
				c0.6-0.1,1.1-0.7,0.9-1.3c-0.6-2.6-1.8-5-3.7-7.1C51.8,40.3,51,40.3,50.6,40.8z M53.8,60c1.5-2.4,2.3-5,2.4-7.6
				c0-0.6-0.5-1.2-1.1-1.1L45.3,52c-0.9,0.1-1.3,1.2-0.6,1.8l7.5,6.4C52.7,60.6,53.5,60.5,53.8,60z M43.7,67
				c2.6-0.6,5.1-1.8,7.2-3.6c0.5-0.4,0.5-1.2,0-1.6l-7.5-6.4c-0.7-0.6-1.8,0-1.7,0.9l0.8,9.8C42.5,66.7,43.1,67.2,43.7,67z
				 M31.6,64.9c2.3,1.5,4.9,2.3,7.6,2.5c0.6,0,1.2-0.5,1.1-1.1l-0.8-9.8c-0.1-0.9-1.2-1.3-1.8-0.6l-6.3,7.4
				C31,63.8,31.1,64.5,31.6,64.9z M29.8,61.9l6.3-7.4c0.6-0.7,0-1.8-0.9-1.7l-9.6,0.8c-0.6,0.1-1.1,0.7-0.9,1.3
				c0.6,2.6,1.7,5,3.5,7.1C28.6,62.4,29.4,62.4,29.8,61.9z"/>
		</g>
	</g>
	<path class="st6" d="M69.3,99.3c-0.1,0-0.3,0-0.4,0c-1.1-0.2-1.8-1.3-1.5-2.4L84,23.5c0.1-0.6,0.6-1.1,1.2-1.4
		c0.6-0.3,1.3-0.2,1.8,0.1l19.2,11.6c0.9,0.6,1.2,1.8,0.7,2.7s-1.8,1.2-2.7,0.7L87.3,27.1l-16,70.7C71.1,98.7,70.3,99.3,69.3,99.3z"
		/>
	<path class="st7" d="M76.7,104.7H50.6c-2.6,0-4.9-2.9-5.2-4.7l-7.7-48.6c-0.2-1.2,0.7-2.3,2-2.3l47.9,0c1.2,0,2.2,1.1,2,2.3
		l-7.7,48.6C81.6,101.8,79.3,104.7,76.7,104.7z"/>
	<g>
		<g>
			<path class="st8" d="M75.2,97.8h-23c-2.5,0-4.7-2.4-4.9-4l-5.2-37l43.3,0l-5.2,37C79.9,95.4,77.7,97.8,75.2,97.8z"/>
		</g>
		<g>
			<defs>
				<path id="SVGID_3_" d="M75.2,97.8h-23c-2.5,0-4.7-2.4-4.9-4l-5.2-37l43.3,0l-5.2,37C79.9,95.4,77.7,97.8,75.2,97.8z"/>
			</defs>
			<clipPath id="SVGID_4_">
				<use xlink:href="#SVGID_3_"  style="overflow:visible;"/>
			</clipPath>
			<polygon class="st9" points="69.9,100.8 81.6,100.8 90.4,46.7 72.9,46.7 			"/>
			<polygon class="st10" points="45.8,100.8 57.5,100.8 54.4,46.9 37,46.9 			"/>
		</g>
	</g>
	<g>
		<g>
			<circle class="st11" cx="75.8" cy="63.5" r="1.2"/>
			<circle class="st11" cx="76.9" cy="75.6" r="1.2"/>
			<circle class="st11" cx="80" cy="61.8" r="1.2"/>
		</g>
		<g>
			<circle class="st8" cx="47.9" cy="63.6" r="1.2"/>
			<circle class="st8" cx="51.3" cy="66.1" r="1.2"/>
			<circle class="st8" cx="50.1" cy="79.4" r="1.2"/>
		</g>
		<g>
			<circle class="st12" cx="66.5" cy="64.7" r="1.2"/>
			<circle class="st12" cx="61.5" cy="71.5" r="1.2"/>
			<circle class="st12" cx="60.5" cy="62.8" r="1.2"/>
			<circle class="st12" cx="67.5" cy="75.5" r="1.2"/>
			<circle class="st12" cx="62.5" cy="88.5" r="1.2"/>
		</g>
	</g>
	<g class="st13">
		<path class="st14" d="M78.2,49.1l-1.6,7.3c0,0.1,0,0.3,0,0.4h4l1.7-7.7H78.2z"/>
	</g>
</g>
</svg>
