<?xml version="1.0" encoding="utf-8"?>
<!-- Generator: Adobe Illustrator 18.0.0, SVG Export Plug-In . SVG Version: 6.00 Build 0)  -->
<!DOCTYPE svg PUBLIC "-//W3C//DTD SVG 1.1//EN" "http://www.w3.org/Graphics/SVG/1.1/DTD/svg11.dtd">
<svg version="1.1" id="Layer_1" xmlns="http://www.w3.org/2000/svg" xmlns:xlink="http://www.w3.org/1999/xlink" x="0px" y="0px"
	 width="128px" height="128px" viewBox="0 0 128 128" style="enable-background:new 0 0 128 128;" xml:space="preserve">
<style type="text/css">
	.st0{fill:#FFCD03;}
	.st1{opacity:0.3;}
	.st2{clip-path:url(#SVGID_2_);fill:#C18643;}
	.st3{fill:#FFFFFF;}
	.st4{clip-path:url(#SVGID_4_);fill:#ECEFED;}
	.st5{clip-path:url(#SVGID_4_);fill:#509541;}
	.st6{clip-path:url(#SVGID_4_);fill:#385C67;}
	.st7{fill:#385C67;}
	.st8{fill:#E7DAB2;}
</style>
<g>
	<circle class="st0" cx="64" cy="64" r="64"/>
	<g class="st1">
		<defs>
			<circle id="SVGID_1_" class="st1" cx="64" cy="64" r="64"/>
		</defs>
		<clipPath id="SVGID_2_">
			<use xlink:href="#SVGID_1_"  style="overflow:visible;"/>
		</clipPath>
		<polygon class="st2" points="91.3,23.8 128,60.6 128,128 61.8,128 43.1,109.3 		"/>
	</g>
	<path class="st3" d="M99.4,44.5L97,35v-3c0-2.2-1.8-4-4-4c0-3.3-2.7-6-6-6H64H41c-3.3,0-6,2.7-6,6c-2.2,0-4,1.8-4,4v3l-2.4,9.5
		c-0.3,1.3,0.6,2.5,1.9,2.5H33l9,60c0,1.7,1.3,3,3,3h19h19c1.7,0,3-1.3,3-3l9-60h2.4C98.7,47,99.7,45.8,99.4,44.5z"/>
	<g>
		<defs>
			<path id="SVGID_3_" d="M99.4,44.5L97,35v-3c0-2.2-1.8-4-4-4c0-3.3-2.7-6-6-6H64H41c-3.3,0-6,2.7-6,6c-2.2,0-4,1.8-4,4v3l-2.4,9.5
				c-0.3,1.3,0.6,2.5,1.9,2.5H33l9,60c0,1.7,1.3,3,3,3h19h19c1.7,0,3-1.3,3-3l9-60h2.4C98.7,47,99.7,45.8,99.4,44.5z"/>
		</defs>
		<clipPath id="SVGID_4_">
			<use xlink:href="#SVGID_3_"  style="overflow:visible;"/>
		</clipPath>
		<rect x="27" y="47" class="st4" width="73" height="44"/>
		<rect x="27.4" y="28" class="st5" width="73" height="7"/>
		<rect x="27.4" y="35" class="st6" width="73" height="2.9"/>
		<rect x="27" y="47" class="st6" width="73" height="3"/>
		<rect x="27" y="107" class="st6" width="73" height="3"/>
		<rect x="27.4" y="90.4" class="st5" width="73" height="16.7"/>
	</g>
	<circle class="st7" cx="64" cy="70" r="15"/>
	<path class="st8" d="M64,72c-0.6-5.7-4.4-8.6-4.4-8.6s4.8,1.6,5.9,6c0.7,2.6,2.5,6.1,5.1,7.7c0.1,0.1,0.2,0.1,0.3,0.2
		c2.3-2.8,2.5-7.5,0.1-11.5c-2.9-4.8-8.3-6.9-12.2-4.6c-3.9,2.3-4.7,8.1-1.8,12.9c2.6,4.3,7.2,6.4,10.9,5.2
		C66.4,78.2,64.4,75.9,64,72z"/>
</g>
</svg>
