<?xml version="1.0" encoding="utf-8"?>
<!-- Generator: Adobe Illustrator 18.0.0, SVG Export Plug-In . SVG Version: 6.00 Build 0)  -->
<!DOCTYPE svg PUBLIC "-//W3C//DTD SVG 1.1//EN" "http://www.w3.org/Graphics/SVG/1.1/DTD/svg11.dtd">
<svg version="1.1" id="Layer_1" xmlns="http://www.w3.org/2000/svg" xmlns:xlink="http://www.w3.org/1999/xlink" x="0px" y="0px"
	 width="128px" height="128px" viewBox="0 0 128 128" style="enable-background:new 0 0 128 128;" xml:space="preserve">
<style type="text/css">
	.st0{fill:#47A634;}
	.st1{clip-path:url(#SVGID_2_);fill:#168C3A;}
	.st2{fill:#D31206;}
	.st3{fill:#A1BFC8;}
	.st4{fill:#81A1A6;}
	.st5{fill:#C9D8E0;}
	.st6{fill:#FFB202;}
	.st7{fill:#EF901E;}
	.st8{fill:#FFD454;}
	.st9{fill:#F1D2AE;}
	.st10{fill:#FFE6CB;}
	.st11{fill:#DFB98A;}
	.st12{fill:#58505B;}
	.st13{fill:#ECF0F1;}
	.st14{fill:#96C7D0;}
	.st15{fill:#7DB3C0;}
</style>
<g>
	<circle class="st0" cx="64" cy="64" r="64"/>
	<g>
		<defs>
			<circle id="SVGID_1_" cx="64" cy="64" r="64"/>
		</defs>
		<clipPath id="SVGID_2_">
			<use xlink:href="#SVGID_1_"  style="overflow:visible;"/>
		</clipPath>
		<polygon class="st1" points="35.3,110.4 52.9,128 128,128 128,63 104.6,39.8 90,55.7 67.3,32.9 32.4,69.2 54.1,91.1 		"/>
	</g>
	<g>
		<path class="st2" d="M102.2,37.3l6.2,6.2c2.9,2.9,2.9,7.6,0,10.5l-5.3,5.3L86.4,42.6l5.3-5.3C94.6,34.4,99.3,34.4,102.2,37.3z"/>
		
			<rect x="78.2" y="48.3" transform="matrix(-0.7071 -0.7071 0.7071 -0.7071 114.2121 158.6769)" class="st3" width="23.6" height="14.7"/>
		
			<rect x="93.6" y="54.7" transform="matrix(-0.7071 -0.7071 0.7071 -0.7071 124.6003 170.1169)" class="st4" width="7.9" height="9.1"/>
		
			<rect x="82.5" y="43.6" transform="matrix(-0.7071 -0.7071 0.7071 -0.7071 113.4684 143.2421)" class="st5" width="7.9" height="9.1"/>
		<path class="st6" d="M54.2,78.9l12.5,12.5c1.2,1.2,3,1.2,4.2,0l26.2-26.2L80.4,48.6L54.2,74.7C53.1,75.9,53.1,77.8,54.2,78.9z"/>
		<path class="st7" d="M63.3,88l3.5,3.5c1.2,1.2,3,1.2,4.2,0l26.2-26.2l-5.6-5.6L63.3,88z"/>
		<path class="st8" d="M54.2,78.9l3.5,3.5L86,54.1l-5.6-5.6L54.2,74.7C53.1,75.9,53.1,77.8,54.2,78.9z"/>
		<g>
			<g>
				<path class="st9" d="M54,78.7l3.7,3.7c2-2,4.8-2.3,6.4-0.8c1.5,1.5,1.2,4.4-0.8,6.4l3.7,3.7c0.9,0.9,0.3,2.7-1.1,3.4l-23.1,11.6
					l-3.6-3.6l11.6-23.1C51.3,78.4,53.1,77.8,54,78.7z"/>
			</g>
			<g>
				<path class="st10" d="M55.7,73.3c1.5,1.5,4,7.2,2,9.1l-17.4,21.8l-1.2-1.2l12.2-24.3c0.6-1.2,1.4-2.3,2.4-3.3
					c0.2-0.2,0.3-0.3,0.5-0.5C54.6,74.4,55.1,73.8,55.7,73.3z"/>
			</g>
			<g>
				<path class="st11" d="M72.4,89.9c-1.5-1.5-7.2-4-9.1-2l-21.8,17.4l1.2,1.2L67,94.4c1.2-0.6,2.3-1.4,3.3-2.4
					c0.2-0.2,0.3-0.3,0.5-0.5C71.3,91.1,71.8,90.5,72.4,89.9z"/>
			</g>
		</g>
		<g>
			<path class="st12" d="M39.1,103l3.6,3.6l-6.3,3.6l0,0c-0.4,0.3-0.8,0.4-1.1,0.1c-0.3-0.3-0.2-0.8,0.1-1.1l0,0
				C36.6,107.1,37.8,105.1,39.1,103z"/>
		</g>
	</g>
	<path class="st13" d="M68.8,40.7L39.5,70c-1.7,1.7-4.6,1.7-6.3,0l-10-10c-1.7-1.7-1.7-4.6,0-6.3l29.3-29.3c1.7-1.7,4.6-1.7,6.3,0
		l10,10C70.5,36.1,70.5,39,68.8,40.7z"/>
	<path class="st14" d="M67.5,43.7l-25,25c-0.4,0.4-1,0.4-1.4,0L24.4,52c-0.4-0.4-0.4-1,0-1.4l25-25c0.4-0.4,1-0.4,1.4,0l16.7,16.7
		C67.9,42.7,67.9,43.4,67.5,43.7z"/>
	<circle class="st15" cx="46" cy="47.2" r="7.2"/>
</g>
</svg>
