<?xml version="1.0" encoding="utf-8"?>
<!-- Generator: Adobe Illustrator 18.0.0, SVG Export Plug-In . SVG Version: 6.00 Build 0)  -->
<!DOCTYPE svg PUBLIC "-//W3C//DTD SVG 1.1//EN" "http://www.w3.org/Graphics/SVG/1.1/DTD/svg11.dtd">
<svg version="1.1" id="Layer_1" xmlns="http://www.w3.org/2000/svg" xmlns:xlink="http://www.w3.org/1999/xlink" x="0px" y="0px"
	 width="128px" height="128px" viewBox="0 0 128 128" style="enable-background:new 0 0 128 128;" xml:space="preserve">
<style type="text/css">
	.st0{fill:#50527E;}
	.st1{clip-path:url(#SVGID_2_);fill:#45457A;}
	.st2{fill:none;stroke:#FFFFFF;stroke-miterlimit:10;}
	.st3{fill:#27A0FF;}
	.st4{fill:#F2F2F2;}
	.st5{clip-path:url(#SVGID_4_);fill:#C1DD00;}
	.st6{opacity:0.26;fill:#2C6FD9;}
	.st7{opacity:0.41;fill:#C2E6E0;}
</style>
<g>
	<circle class="st0" cx="64" cy="64" r="64"/>
	<g>
		<defs>
			<circle id="SVGID_1_" cx="64" cy="64" r="64"/>
		</defs>
		<clipPath id="SVGID_2_">
			<use xlink:href="#SVGID_1_"  style="overflow:visible;"/>
		</clipPath>
		<path class="st1" d="M44.2,112.4L59.8,128H128V68.3L90.8,31.1l-38.6,4.2L41.6,24.7L40,27.5l-9.2,14l-2.7,15.7
			c0,0,4.4,17.3,7.5,20.2c3.1,2.8,2.4,5.3,2.4,5.3l24.3,24.3l5.4,3.2l-10.1,0.1L44.2,112.4z"/>
	</g>
	<line class="st2" x1="38.5" y1="27.5" x2="92.8" y2="81.8"/>
	<circle class="st3" cx="67.7" cy="53.3" r="32"/>
	<g>
		<path class="st4" d="M96,82.6c1-1,1-2.6,0-3.5c-1-1-2.6-1-3.5,0C85.7,85.9,76.7,89.6,67,89.6s-18.6-3.7-25.4-10.5
			c-6.8-6.8-10.5-15.8-10.5-25.4S34.8,35,41.6,28.2c1-1,1-2.6,0-3.5c-1-1-2.6-1-3.5,0c-7.7,7.7-12,18-12,29s4.3,21.2,12,29
			c6.8,6.8,15.4,10.7,24.3,11.7v11.9c-8.3,0.3-15.2,1.9-18.1,4c-0.9,0.7-0.5,2.4,0.6,2.4h39.8c1.1,0,1.5-1.7,0.6-2.4
			c-2.9-2.2-9.7-3.7-17.9-4V94.6C77.7,94.5,88.1,90.5,96,82.6z"/>
	</g>
	<g>
		<defs>
			<circle id="SVGID_3_" cx="67.7" cy="53.3" r="32"/>
		</defs>
		<clipPath id="SVGID_4_">
			<use xlink:href="#SVGID_3_"  style="overflow:visible;"/>
		</clipPath>
		<path class="st5" d="M56.2,21.7c0,0-7.9,3.1-9.3,4.9c-1.4,1.8,0,4.7,1.7,4.9c1.7,0.2,2.8-2.8,3.6-4.5c0.8-1.6,5.2-2.5,6-3.4
			C59.1,22.9,56.2,21.7,56.2,21.7z M49.3,68.5c-0.8-2-4.1,1-4.4-0.9s-0.3-0.9-1.6-1.6c-5.2-3-1.4-3.6-3.7-7.2
			c-2.3-3.7-2.5,1.2-2.9-5.1c-0.2-2.6,6.6-7.6,7.7-9.6c1.1-1.9,0.1-3.4-0.8-4.4c-0.9-1,0-1.5-0.5-3.1c-0.5-1.6-3.8-1-3.8-1
			S38,36,36.4,39.9c-1.6,3.9-2,17.1-0.4,24.8c1.6,7.7,9.7,14,9.8,12.8c0.1-1.2,1.2-2.7,2.3-2.4c1.2,0.3,0.3-1.8,0.1-2.8
			S50.1,70.5,49.3,68.5z M85.2,25.6c0,0,0.7,0.7-2.2,1c-2.8,0.3-6.5-3.5-10-2.2c-3.5,1.3-7.4,3.4-5.5,4.4c2,0.9,4.1,1.8,5.1,0.8
			c0.9-1,1.9-2.3,2.8-1c0.9,1.3-0.3,3-3.4,3c-3,0.1-5.8,0.2-6.7,1.1c-0.9,0.9-2.7,1.3-2.5-0.6c0.2-2,0.5-4.1-2.1-2.6
			c-2.5,1.6-3.2,5.2-0.5,4.9c2.7-0.3,3.7-0.2,3.6,0.6c0,0.8,0,3.1-2.2,2.9c-2.1-0.2-3.9,1.2-2.7,2.7c1.2,1.5,5-0.3,6.2-1.5
			c1.2-1.2,2.1-2,3.2-1.6c1.1,0.4,2.3,3.3,3.4,2.8c1.2-0.5-1.4-3.4,0.5-3.1c1.8,0.3,2.8,4.2,3.4,4c0.6-0.1,0.8-2.4,1.9-2.5
			c1.1-0.1,2.9-3,4.5-2.1c1.6,0.9,3.1,2.6,1.6,2.5c-1.5-0.1-4-0.3-3.8,1.3s3.4,1.9,1.8,3.1c-1.6,1.1-4,1.8-5.9,1.1
			c-1.9-0.7-1.6,0.8-3.3,0.3c-1.7-0.5-3.9-3.8-6.8-3.2c-2.9,0.6-4.5,1.4-5.7,3.3c-1.1,1.9-3.6,1.2-4,4.7c-0.3,3.5-1.9,4.9,0,6.8
			c1.9,1.9,4.2,3.2,7.5,2.5c3.4-0.7,4.7-1.2,5.4,0.5c0.8,1.7-1.3,2.8-0.3,3.7c1,0.9,3,2.2,2.4,4.4c-0.6,2.2-1.8,2.9-0.6,4.3
			c1.2,1.3,1,3.4,2,4.2c1,0.8-0.1,2.9,3.2,1.6c3.3-1.3,4.9-3.8,5.2-5.2c0.3-1.3,0.8-2.5,1.8-3.3s1.5-3.4,1.1-4.8
			c-0.4-1.4,1.5-3.4,2.6-4.4c1.1-1.1,4.1-4.5,2.3-4.4c-1.8,0.1,1-2.6,2-3.6s1.1-2.5,0-2.8c-1.1-0.3-4.3-1.5-2.6-1.6s6.1-0.3,6.9,1.3
			c0.8,1.5,0,8.8,1.2,8.5c1.2-0.3,1.6-6.5,2.8-6.8S99.5,33.2,85.2,25.6z"/>
	</g>
	<path class="st6" d="M81.1,24c8.1,5.8,13.6,16.6,13.6,29.1c0,12.5-5.5,23.3-13.6,29.1c11-5.1,18.6-16.2,18.6-29.1
		C99.7,40.1,92.1,29,81.1,24z"/>
	<path class="st7" d="M40.7,53.3c0-12.5,5.5-23.3,13.6-29.1c-11,5.1-18.6,16.2-18.6,29.1c0,12.9,7.6,24,18.6,29.1
		C46.2,76.6,40.7,65.7,40.7,53.3z"/>
</g>
</svg>
