<?xml version="1.0" encoding="utf-8"?>
<!-- Generator: Adobe Illustrator 18.0.0, SVG Export Plug-In . SVG Version: 6.00 Build 0)  -->
<!DOCTYPE svg PUBLIC "-//W3C//DTD SVG 1.1//EN" "http://www.w3.org/Graphics/SVG/1.1/DTD/svg11.dtd">
<svg version="1.1" id="Layer_1" xmlns="http://www.w3.org/2000/svg" xmlns:xlink="http://www.w3.org/1999/xlink" x="0px" y="0px"
	 width="128px" height="128px" viewBox="0 0 128 128" style="enable-background:new 0 0 128 128;" xml:space="preserve">
<style type="text/css">
	.st0{fill:#FF5E00;}
	.st1{opacity:0.65;clip-path:url(#SVGID_2_);fill:#D34925;}
	.st2{fill:#FFFFFF;}
	.st3{fill:#E0E8E9;}
	.st4{fill:#E1DBCA;}
	.st5{fill:#FAA819;}
	.st6{fill:#8B4E14;}
</style>
<g>
	<circle class="st0" cx="64" cy="64" r="64"/>
	<g>
		<defs>
			<circle id="SVGID_1_" cx="64" cy="64" r="64"/>
		</defs>
		<clipPath id="SVGID_2_">
			<use xlink:href="#SVGID_1_"  style="overflow:visible;"/>
		</clipPath>
		<polygon class="st1" points="33.5,107.7 54,128 128,128 128,57.5 94.5,24.3 33.9,32 41.5,39.6 41.5,103.2 		"/>
	</g>
	<g>
		<path class="st2" d="M67.5,68c-0.6-0.7-0.9-1.6-0.9-2.6s0.3-1.9,0.9-2.6L80.4,48c3.9-4.5,6.1-10.7,6.1-17.1h-45
			c0,6.4,2.2,12.5,6.1,17.1l12.9,14.9c0.6,0.7,0.9,1.6,0.9,2.6s-0.3,1.9-0.9,2.6L47.6,82.9c-3.9,4.5-6.1,10.7-6.1,17.1h45
			c0-6.4-2.2-12.5-6.1-17.1L67.5,68z"/>
	</g>
	<g>
		<path class="st3" d="M43.6,100c0.4-5.2,2.4-12.1,5.6-15.8L62,69.3c0.9-1,1.4-2.4,1.4-3.9c0-1.4-0.5-2.8-1.4-3.9L49.1,46.7
			c-3.2-3.7-5.1-8.6-5.6-15.1h40.8C84,38.1,82,43.1,78.9,46.7L66,61.6c-0.9,1-1.4,2.4-1.4,3.9s0.5,2.8,1.4,3.9l12.9,14.9
			C82,87.9,84,94.8,84.4,100H43.6z"/>
	</g>
	<path class="st4" d="M92.6,23.5H35.4c-1.4,0-2.6,1.1-2.6,2.6v3.9c0,1.4,1.1,2.6,2.6,2.6h57.3c1.4,0,2.6-1.1,2.6-2.6V26
		C95.2,24.6,94.1,23.5,92.6,23.5z"/>
	<rect x="40.5" y="32" class="st4" width="2" height="68"/>
	<rect x="85.5" y="32" class="st4" width="2" height="68"/>
	<g>
		<path class="st5" d="M83.3,94.3L83.3,94.3c-2.7-7.2-17.9-6.6-17.9-6.6c-0.9-1-0.8-20.8-0.8-22.2s0.5-2.8,1.4-3.9l8.5-9.9
			c0.6-0.7,0-1.8-0.9-1.6c-2.1,0.4-5.4,0.7-9.6,0.8c-4.2,0-7.5-0.4-9.6-0.8c-0.9-0.2-1.5,0.9-0.9,1.6l8.5,9.9c0.9,1,1.4,2.4,1.4,3.9
			s0.1,21.1-0.8,22.1c0,0-15.2-0.5-17.9,6.7l0,0c-0.6,1.8-0.9,3.7-1.1,5.7h40.8C84.3,98,83.9,96.1,83.3,94.3z"/>
	</g>
	<g>
		<path class="st6" d="M39,30.1L39,30.1c-0.4,0-0.8-0.4-0.8-0.8v-2.8c0-0.4,0.4-0.8,0.8-0.8h0c0.4,0,0.8,0.4,0.8,0.8v2.8
			C39.8,29.7,39.4,30.1,39,30.1z"/>
		<path class="st6" d="M42.3,30.1L42.3,30.1c-0.4,0-0.8-0.4-0.8-0.8v-2.8c0-0.4,0.4-0.8,0.8-0.8h0c0.4,0,0.8,0.4,0.8,0.8v2.8
			C43.1,29.7,42.7,30.1,42.3,30.1z"/>
		<path class="st6" d="M45.6,30.1L45.6,30.1c-0.4,0-0.8-0.4-0.8-0.8v-2.8c0-0.4,0.4-0.8,0.8-0.8l0,0c0.4,0,0.8,0.4,0.8,0.8v2.8
			C46.4,29.7,46.1,30.1,45.6,30.1z"/>
		<path class="st6" d="M49,30.1L49,30.1c-0.4,0-0.8-0.4-0.8-0.8v-2.8c0-0.4,0.4-0.8,0.8-0.8l0,0c0.4,0,0.8,0.4,0.8,0.8v2.8
			C49.7,29.7,49.4,30.1,49,30.1z"/>
		<path class="st6" d="M52.3,30.1L52.3,30.1c-0.4,0-0.8-0.4-0.8-0.8v-2.8c0-0.4,0.4-0.8,0.8-0.8h0c0.4,0,0.8,0.4,0.8,0.8v2.8
			C53.1,29.7,52.7,30.1,52.3,30.1z"/>
		<path class="st6" d="M55.6,30.1L55.6,30.1c-0.4,0-0.8-0.4-0.8-0.8v-2.8c0-0.4,0.4-0.8,0.8-0.8h0c0.4,0,0.8,0.4,0.8,0.8v2.8
			C56.4,29.7,56.1,30.1,55.6,30.1z"/>
		<path class="st6" d="M59,30.1L59,30.1c-0.4,0-0.8-0.4-0.8-0.8v-2.8c0-0.4,0.4-0.8,0.8-0.8l0,0c0.4,0,0.8,0.4,0.8,0.8v2.8
			C59.7,29.7,59.4,30.1,59,30.1z"/>
		<path class="st6" d="M62.3,30.1L62.3,30.1c-0.4,0-0.8-0.4-0.8-0.8v-2.8c0-0.4,0.4-0.8,0.8-0.8l0,0c0.4,0,0.8,0.4,0.8,0.8v2.8
			C63.1,29.7,62.7,30.1,62.3,30.1z"/>
		<path class="st6" d="M65.6,30.1L65.6,30.1c-0.4,0-0.8-0.4-0.8-0.8v-2.8c0-0.4,0.4-0.8,0.8-0.8l0,0c0.4,0,0.8,0.4,0.8,0.8v2.8
			C66.4,29.7,66.1,30.1,65.6,30.1z"/>
		<path class="st6" d="M69,30.1L69,30.1c-0.4,0-0.8-0.4-0.8-0.8v-2.8c0-0.4,0.4-0.8,0.8-0.8l0,0c0.4,0,0.8,0.4,0.8,0.8v2.8
			C69.7,29.7,69.4,30.1,69,30.1z"/>
		<path class="st6" d="M72.3,30.1L72.3,30.1c-0.4,0-0.8-0.4-0.8-0.8v-2.8c0-0.4,0.4-0.8,0.8-0.8h0c0.4,0,0.8,0.4,0.8,0.8v2.8
			C73.1,29.7,72.7,30.1,72.3,30.1z"/>
		<path class="st6" d="M75.6,30.1L75.6,30.1c-0.4,0-0.8-0.4-0.8-0.8v-2.8c0-0.4,0.4-0.8,0.8-0.8h0c0.4,0,0.8,0.4,0.8,0.8v2.8
			C76.4,29.7,76.1,30.1,75.6,30.1z"/>
		<path class="st6" d="M79,30.1L79,30.1c-0.4,0-0.8-0.4-0.8-0.8v-2.8c0-0.4,0.4-0.8,0.8-0.8l0,0c0.4,0,0.8,0.4,0.8,0.8v2.8
			C79.7,29.7,79.4,30.1,79,30.1z"/>
		<path class="st6" d="M82.3,30.1L82.3,30.1c-0.4,0-0.8-0.4-0.8-0.8v-2.8c0-0.4,0.4-0.8,0.8-0.8l0,0c0.4,0,0.8,0.4,0.8,0.8v2.8
			C83.1,29.7,82.7,30.1,82.3,30.1z"/>
		<path class="st6" d="M85.6,30.1L85.6,30.1c-0.4,0-0.8-0.4-0.8-0.8v-2.8c0-0.4,0.4-0.8,0.8-0.8l0,0c0.4,0,0.8,0.4,0.8,0.8v2.8
			C86.4,29.7,86.1,30.1,85.6,30.1z"/>
		<path class="st6" d="M89,30.1L89,30.1c-0.4,0-0.8-0.4-0.8-0.8v-2.8c0-0.4,0.4-0.8,0.8-0.8l0,0c0.4,0,0.8,0.4,0.8,0.8v2.8
			C89.7,29.7,89.4,30.1,89,30.1z"/>
	</g>
	<path class="st4" d="M92.7,99.5H35.3c-1.4,0-2.6,1.1-2.6,2.6v3.9c0,1.4,1.1,2.6,2.6,2.6h57.4c1.4,0,2.6-1.1,2.6-2.6V102
		C95.2,100.6,94.1,99.5,92.7,99.5z"/>
	<g>
		<path class="st6" d="M39,106.1L39,106.1c-0.4,0-0.8-0.4-0.8-0.8v-2.8c0-0.4,0.4-0.8,0.8-0.8h0c0.4,0,0.8,0.4,0.8,0.8v2.8
			C39.8,105.8,39.4,106.1,39,106.1z"/>
		<path class="st6" d="M42.3,106.1L42.3,106.1c-0.4,0-0.8-0.4-0.8-0.8v-2.8c0-0.4,0.4-0.8,0.8-0.8h0c0.4,0,0.8,0.4,0.8,0.8v2.8
			C43.1,105.8,42.7,106.1,42.3,106.1z"/>
		<path class="st6" d="M45.6,106.1L45.6,106.1c-0.4,0-0.8-0.4-0.8-0.8v-2.8c0-0.4,0.4-0.8,0.8-0.8l0,0c0.4,0,0.8,0.4,0.8,0.8v2.8
			C46.4,105.8,46.1,106.1,45.6,106.1z"/>
		<path class="st6" d="M49,106.1L49,106.1c-0.4,0-0.8-0.4-0.8-0.8v-2.8c0-0.4,0.4-0.8,0.8-0.8l0,0c0.4,0,0.8,0.4,0.8,0.8v2.8
			C49.7,105.8,49.4,106.1,49,106.1z"/>
		<path class="st6" d="M52.3,106.1L52.3,106.1c-0.4,0-0.8-0.4-0.8-0.8v-2.8c0-0.4,0.4-0.8,0.8-0.8h0c0.4,0,0.8,0.4,0.8,0.8v2.8
			C53.1,105.8,52.7,106.1,52.3,106.1z"/>
		<path class="st6" d="M55.6,106.1L55.6,106.1c-0.4,0-0.8-0.4-0.8-0.8v-2.8c0-0.4,0.4-0.8,0.8-0.8h0c0.4,0,0.8,0.4,0.8,0.8v2.8
			C56.4,105.8,56.1,106.1,55.6,106.1z"/>
		<path class="st6" d="M59,106.1L59,106.1c-0.4,0-0.8-0.4-0.8-0.8v-2.8c0-0.4,0.4-0.8,0.8-0.8l0,0c0.4,0,0.8,0.4,0.8,0.8v2.8
			C59.7,105.8,59.4,106.1,59,106.1z"/>
		<path class="st6" d="M62.3,106.1L62.3,106.1c-0.4,0-0.8-0.4-0.8-0.8v-2.8c0-0.4,0.4-0.8,0.8-0.8l0,0c0.4,0,0.8,0.4,0.8,0.8v2.8
			C63.1,105.8,62.7,106.1,62.3,106.1z"/>
		<path class="st6" d="M65.6,106.1L65.6,106.1c-0.4,0-0.8-0.4-0.8-0.8v-2.8c0-0.4,0.4-0.8,0.8-0.8l0,0c0.4,0,0.8,0.4,0.8,0.8v2.8
			C66.4,105.8,66.1,106.1,65.6,106.1z"/>
		<path class="st6" d="M69,106.1L69,106.1c-0.4,0-0.8-0.4-0.8-0.8v-2.8c0-0.4,0.4-0.8,0.8-0.8l0,0c0.4,0,0.8,0.4,0.8,0.8v2.8
			C69.7,105.8,69.4,106.1,69,106.1z"/>
		<path class="st6" d="M72.3,106.1L72.3,106.1c-0.4,0-0.8-0.4-0.8-0.8v-2.8c0-0.4,0.4-0.8,0.8-0.8h0c0.4,0,0.8,0.4,0.8,0.8v2.8
			C73.1,105.8,72.7,106.1,72.3,106.1z"/>
		<path class="st6" d="M75.6,106.1L75.6,106.1c-0.4,0-0.8-0.4-0.8-0.8v-2.8c0-0.4,0.4-0.8,0.8-0.8h0c0.4,0,0.8,0.4,0.8,0.8v2.8
			C76.4,105.8,76.1,106.1,75.6,106.1z"/>
		<path class="st6" d="M79,106.1L79,106.1c-0.4,0-0.8-0.4-0.8-0.8v-2.8c0-0.4,0.4-0.8,0.8-0.8l0,0c0.4,0,0.8,0.4,0.8,0.8v2.8
			C79.7,105.8,79.4,106.1,79,106.1z"/>
		<path class="st6" d="M82.3,106.1L82.3,106.1c-0.4,0-0.8-0.4-0.8-0.8v-2.8c0-0.4,0.4-0.8,0.8-0.8l0,0c0.4,0,0.8,0.4,0.8,0.8v2.8
			C83.1,105.8,82.7,106.1,82.3,106.1z"/>
		<path class="st6" d="M85.6,106.1L85.6,106.1c-0.4,0-0.8-0.4-0.8-0.8v-2.8c0-0.4,0.4-0.8,0.8-0.8l0,0c0.4,0,0.8,0.4,0.8,0.8v2.8
			C86.4,105.8,86.1,106.1,85.6,106.1z"/>
		<path class="st6" d="M89,106.1L89,106.1c-0.4,0-0.8-0.4-0.8-0.8v-2.8c0-0.4,0.4-0.8,0.8-0.8l0,0c0.4,0,0.8,0.4,0.8,0.8v2.8
			C89.7,105.8,89.4,106.1,89,106.1z"/>
	</g>
	<circle class="st4" cx="41.5" cy="65.5" r="4.1"/>
	<circle class="st4" cx="86.5" cy="65.5" r="4.1"/>
</g>
</svg>
