<?xml version="1.0" encoding="utf-8"?>
<!-- Generator: Adobe Illustrator 18.0.0, SVG Export Plug-In . SVG Version: 6.00 Build 0)  -->
<!DOCTYPE svg PUBLIC "-//W3C//DTD SVG 1.1//EN" "http://www.w3.org/Graphics/SVG/1.1/DTD/svg11.dtd">
<svg version="1.1" id="Layer_1" xmlns="http://www.w3.org/2000/svg" xmlns:xlink="http://www.w3.org/1999/xlink" x="0px" y="0px"
	 width="128px" height="128px" viewBox="0 0 128 128" style="enable-background:new 0 0 128 128;" xml:space="preserve">
<style type="text/css">
	.st0{fill:#A1BFC8;}
	.st1{opacity:0.61;clip-path:url(#SVGID_2_);fill:#729FAD;}
	.st2{opacity:0.95;clip-path:url(#SVGID_2_);fill:#729FAD;}
	.st3{fill:#2B3E53;}
	.st4{fill:none;stroke:#3C5876;stroke-width:1.1822;stroke-miterlimit:10;}
	.st5{opacity:0.41;clip-path:url(#SVGID_4_);fill:#131D29;}
	.st6{fill:#F54F33;}
	.st7{fill:#E6F5FE;}
	.st8{opacity:0.7;clip-path:url(#SVGID_6_);fill:#D31206;}
	.st9{fill:#FFFFFF;}
	
		.st10{clip-path:url(#SVGID_8_);fill:none;stroke:#E6F5FE;stroke-width:4.7289;stroke-linecap:round;stroke-linejoin:round;stroke-miterlimit:10;}
</style>
<g>
	<circle class="st0" cx="64" cy="64" r="64"/>
	<g>
		<defs>
			<circle id="SVGID_1_" cx="64" cy="64" r="64"/>
		</defs>
		<clipPath id="SVGID_2_">
			<use xlink:href="#SVGID_1_"  style="overflow:visible;"/>
		</clipPath>
		<polygon class="st1" points="29.7,94.8 62.5,128 128,128 128,65.2 128,37.2 103.8,10 103.8,40.8 95.6,32.4 		"/>
		<polygon class="st2" points="29.7,94.8 62.5,128 128,128 128,65.2 128,65.5 116.8,53.8 103.8,40.8 95.6,32.4 		"/>
	</g>
	<circle class="st3" cx="63.6" cy="64.7" r="45.4"/>
	<circle class="st4" cx="63.6" cy="64.7" r="40.2"/>
	<g>
		<defs>
			<circle id="SVGID_3_" cx="63.6" cy="64.7" r="45.4"/>
		</defs>
		<clipPath id="SVGID_4_">
			<use xlink:href="#SVGID_3_"  style="overflow:visible;"/>
		</clipPath>
		<path class="st5" d="M76.7,92.8l11.7,11.7l21.8-19l1.5-23.6l-4.5-13.6l-3.5-3.5c0,0,0,17.1-3.2,23.5c-3.2,6.4-12.8,18.4-12.8,18.4
			L76.7,92.8z"/>
	</g>
	<circle class="st4" cx="63.6" cy="64.7" r="23.6"/>
	<circle class="st4" cx="63.6" cy="64.7" r="29"/>
	<circle class="st4" cx="63.6" cy="64.7" r="34.5"/>
	<circle class="st6" cx="63.6" cy="64.7" r="19"/>
	<path class="st7" d="M81.1,97l-4.3-4.3c-1.2-1.2-1.2-3.1,0-4.2l11.7-12c1.2-1.2,3.1-1.2,4.2,0l4.3,4.3c1.2,1.2,1.2,3.1,0,4.2
		L85.3,97C84.2,98.2,82.2,98.2,81.1,97z"/>
	<g>
		<defs>
			<circle id="SVGID_5_" cx="63.6" cy="64.7" r="19"/>
		</defs>
		<clipPath id="SVGID_6_">
			<use xlink:href="#SVGID_5_"  style="overflow:visible;"/>
		</clipPath>
		<polygon class="st8" points="61,67.2 74.8,81 80.1,75.6 66.1,62.1 		"/>
	</g>
	<circle class="st9" cx="63.6" cy="64.7" r="3.6"/>
	<g>
		<defs>
			<circle id="SVGID_7_" cx="64" cy="64" r="64"/>
		</defs>
		<clipPath id="SVGID_8_">
			<use xlink:href="#SVGID_7_"  style="overflow:visible;"/>
		</clipPath>
		<path class="st10" d="M103.8,9.2v33c0,11.3,0,31.1-14.2,41.5"/>
	</g>
</g>
</svg>
