<?xml version="1.0" encoding="utf-8"?>
<!-- Generator: Adobe Illustrator 18.0.0, SVG Export Plug-In . SVG Version: 6.00 Build 0)  -->
<!DOCTYPE svg PUBLIC "-//W3C//DTD SVG 1.1//EN" "http://www.w3.org/Graphics/SVG/1.1/DTD/svg11.dtd">
<svg version="1.1" id="Layer_1" xmlns="http://www.w3.org/2000/svg" xmlns:xlink="http://www.w3.org/1999/xlink" x="0px" y="0px"
	 width="128px" height="128px" viewBox="0 0 128 128" style="enable-background:new 0 0 128 128;" xml:space="preserve">
<style type="text/css">
	.st0{fill:#F6A119;}
	.st1{opacity:0.32;clip-path:url(#SVGID_2_);fill:#D74F15;}
	.st2{fill:#FFCD47;}
	.st3{fill:#FFE68D;}
	.st4{fill:#792A39;}
	.st5{opacity:0.64;fill:#61212C;}
	.st6{fill:#E6302A;}
	.st7{opacity:0.72;fill:#BF0B24;}
	.st8{fill:#561B25;}
	.st9{fill:#F59C00;}
	.st10{fill:#AD1613;}
	.st11{fill:#FDD796;}
	.st12{fill:#F49800;}
	.st13{fill:#69B42E;}
	.st14{fill:#F9AF45;}
	.st15{fill:#F69C38;}
	.st16{fill:#F58F26;}
	.st17{fill:#F9AE23;}
	.st18{fill:#FFE9AA;}
	.st19{fill:#EF7B12;}
	.st20{fill:#F9AF22;}
</style>
<g>
	<circle class="st0" cx="64" cy="64" r="64"/>
	<g>
		<defs>
			<circle id="SVGID_1_" cx="64" cy="64" r="64"/>
		</defs>
		<clipPath id="SVGID_2_">
			<use xlink:href="#SVGID_1_"  style="overflow:visible;"/>
		</clipPath>
		<polygon class="st1" points="27.1,54.6 29.8,57.4 22.2,62.6 24.9,65.4 24.7,68.3 27.3,70.8 26,73.8 28.4,76.3 25.4,84.2 
			28.5,87.3 26.7,92.9 62.2,127.9 128,128 128,67.6 94.3,34.5 		"/>
	</g>
	<path class="st2" d="M98.7,93.8H29.2c-2.1,0-3.8-1.7-3.8-3.8v-1.1c0-2.1,1.7-3.8,3.8-3.8h69.6c2.1,0,3.8,1.7,3.8,3.8V90
		C102.6,92.1,100.8,93.8,98.7,93.8z"/>
	<path class="st3" d="M30.4,90v-1.1c0-2.1,1.7-3.8,3.8-3.8h-5.1c-2.1,0-3.8,1.7-3.8,3.8V90c0,2.1,1.7,3.8,3.8,3.8h5.1
		C32.2,93.8,30.4,92.1,30.4,90z"/>
	<path class="st4" d="M100.3,85.1H28c-2.3,0-4.1-1.8-4.1-4.1v-2.3c0-2.3,1.8-4.1,4.1-4.1h72.3c2.3,0,4.1,1.8,4.1,4.1V81
		C104.4,83.2,102.6,85.1,100.3,85.1z"/>
	<path class="st5" d="M100.3,82.8H28c-2.3,0-4.1-1.8-4.1-4.1V81c0,2.3,1.8,4.1,4.1,4.1h72.3c2.3,0,4.1-1.8,4.1-4.1v-2.3
		C104.4,81,102.6,82.8,100.3,82.8z"/>
	<path class="st4" d="M101.1,69.3H27.2c-1.9,0-3.5-1.6-3.5-3.5v-2.1c0-1.9,1.6-3.5,3.5-3.5h73.9c1.9,0,3.5,1.6,3.5,3.5v2.1
		C104.7,67.8,103.1,69.3,101.1,69.3z"/>
	<path class="st6" d="M100.4,74.4H27.6c-1.2,0-2.2-1-2.2-2.2v-0.8c0-1.2,1-2.2,2.2-2.2h72.8c1.2,0,2.2,1,2.2,2.2v0.8
		C102.6,73.5,101.6,74.4,100.4,74.4z"/>
	<path class="st7" d="M25.4,71.9v0.4c0,1.2,1,2.2,2.2,2.2h72.8c1.2,0,2.2-1,2.2-2.2v-0.4H25.4z"/>
	<polygon class="st8" points="49.4,74.4 57.8,85.1 70.4,85.1 78.6,74.4 	"/>
	<path class="st9" d="M57.9,85.1h12.5l-4,5.2c-1.1,1.5-3.4,1.5-4.5,0L57.9,85.1z"/>
	<polygon class="st10" points="45.4,69.3 49.4,74.4 78.6,74.4 82.5,69.3 	"/>
	<path class="st11" d="M45.4,69.3h37.2L65.5,86.4c-0.7,0.7-1.9,0.7-2.7,0L45.4,69.3z"/>
	<path class="st12" d="M46.3,69.3h35.4L64.7,85.7c-0.3,0.3-0.9,0.3-1.2,0L46.3,69.3z"/>
	<path class="st13" d="M97,56h-66c-9.1,0-10.3,3.9-9.2,6c0.5,1,2.1,1.7,4.2,1.7s3.2-0.9,4.2-1.7c0.9-0.8,1.7-1.5,3.4-1.5
		c1.6,0,2.5,0.7,3.4,1.5c1,0.8,2.1,1.7,4.2,1.7s3.2-0.9,4.2-1.7c0.9-0.8,1.7-1.5,3.4-1.5s2.5,0.7,3.4,1.5c1,0.8,2.1,1.7,4.2,1.7
		c0,0,0,0,0,0s0,0,0,0c2.2,0,3.3-0.9,4.2-1.7c0.9-0.8,1.7-1.5,3.4-1.5c1.6,0,2.4,0.7,3.4,1.5c1,0.8,2.1,1.7,4.2,1.7c0,0,0,0,0,0
		c0,0,0,0,0,0c2.2,0,3.2-0.9,4.2-1.7c0.9-0.8,1.7-1.5,3.4-1.5c1.6,0,2.4,0.7,3.4,1.5c1,0.8,2.1,1.7,4.2,1.7v0c0,0,0,0,0,0
		c2.2,0,3.2-0.9,4.2-1.7c0.9-0.8,1.7-1.5,3.4-1.5c1.6,0,2.5,0.7,3.4,1.5c1,0.8,2.1,1.7,4.2,1.7c2.2,0,3.7-0.7,4.2-1.7
		C109,56.5,97,56,97,56z"/>
	<g>
		<path class="st2" d="M63.9,23.6c-27.4,0-38.6,17.4-38.6,26.8l0,0c0,3.1,2.5,5.6,5.6,5.6h66c3.1,0,5.6-2.5,5.6-5.6l0,0
			C102.6,41.2,90.9,23.6,63.9,23.6z"/>
	</g>
	<path class="st3" d="M30.5,50.4c0-9.1,10.5-25.7,36-26.8c-0.8,0-1.7-0.1-2.5-0.1c-27.4,0-38.6,17.4-38.6,26.8
		c0,3.1,2.5,5.6,5.6,5.6h5.1C33,56,30.5,53.5,30.5,50.4z"/>
	<g>
		<g>
			<circle class="st14" cx="67.7" cy="37.4" r="1.6"/>
			<circle class="st14" cx="54.3" cy="47.4" r="1.6"/>
			<circle class="st15" cx="47.9" cy="37.4" r="1.6"/>
			<circle class="st14" cx="81.3" cy="43.1" r="1.6"/>
			<circle class="st14" cx="73.1" cy="30.6" r="1.6"/>
			<circle class="st16" cx="66.1" cy="48.5" r="1.6"/>
			<circle class="st17" cx="55.9" cy="35.9" r="1.6"/>
			<circle class="st16" cx="82.7" cy="33" r="1.6"/>
			<circle class="st16" cx="62.7" cy="29.9" r="1.6"/>
			<circle class="st18" cx="47.5" cy="45.4" r="1.6"/>
			<circle class="st18" cx="74.4" cy="45.9" r="1.6"/>
			<circle class="st18" cx="89" cy="40.6" r="1.6"/>
			<circle class="st18" cx="40.6" cy="39.9" r="1.6"/>
			<circle class="st18" cx="61.2" cy="41.5" r="1.6"/>
			<circle class="st18" cx="52.3" cy="30.6" r="1.6"/>
			<circle class="st18" cx="75.9" cy="38.1" r="1.6"/>
		</g>
	</g>
	<polygon class="st19" points="46.3,69.3 81.6,69.3 79,71.9 49.4,71.9 	"/>
	<path class="st20" d="M55.9,78.5h16.3l-7.5,7.2c-0.3,0.3-0.9,0.3-1.2,0L55.9,78.5z"/>
</g>
</svg>
