<?xml version="1.0" encoding="utf-8"?>
<!-- Generator: Adobe Illustrator 18.0.0, SVG Export Plug-In . SVG Version: 6.00 Build 0)  -->
<!DOCTYPE svg PUBLIC "-//W3C//DTD SVG 1.1//EN" "http://www.w3.org/Graphics/SVG/1.1/DTD/svg11.dtd">
<svg version="1.1" id="Layer_1" xmlns="http://www.w3.org/2000/svg" xmlns:xlink="http://www.w3.org/1999/xlink" x="0px" y="0px"
	 width="128px" height="128px" viewBox="0 0 128 128" style="enable-background:new 0 0 128 128;" xml:space="preserve">
<style type="text/css">
	.st0{fill:#2D4471;}
	.st1{opacity:0.8;clip-path:url(#SVGID_2_);}
	.st2{fill:#253855;}
	.st3{fill:#0E5B94;}
	.st4{fill:#008AC3;}
	.st5{clip-path:url(#SVGID_4_);}
	.st6{fill:#EF5034;}
	.st7{opacity:0.7;fill:#D83A2E;}
	.st8{fill:#ECEFF0;}
	.st9{opacity:0.5;fill:#B0BDC1;stroke:#FFFFFF;stroke-width:0.5;stroke-miterlimit:10;}
	.st10{fill:#FFD800;}
	.st11{fill:#FCB813;}
	.st12{fill:#F6921E;}
	.st13{opacity:0.45;clip-path:url(#SVGID_6_);fill:#97AABB;}
	.st14{fill:none;}
	.st15{clip-path:url(#SVGID_8_);fill:#C8D6D7;}
	.st16{fill:#FFFFFF;}
	.st17{fill:#51326C;}
	.st18{fill:#412459;}
	.st19{fill:#724D95;}
	.st20{fill:#B47DB5;}
</style>
<g>
	<circle class="st0" cx="64" cy="64" r="64"/>
	<g>
		<defs>
			<circle id="SVGID_1_" cx="64" cy="64" r="64"/>
		</defs>
		<clipPath id="SVGID_2_">
			<use xlink:href="#SVGID_1_"  style="overflow:visible;"/>
		</clipPath>
		<g class="st1">
			<polygon class="st2" points="31.3,49 101.3,119 88.4,125.4 21,58.1 			"/>
			<polygon class="st2" points="111.3,63.8 128,80.6 128,91.8 105.2,69 			"/>
			<polygon class="st2" points="98.6,32.8 128,62.3 128,69.7 94.8,36.4 			"/>
		</g>
	</g>
	<g>
		<circle class="st3" cx="26" cy="53.4" r="6.9"/>
		<path class="st4" d="M27,59.3c-3.8,0-6.9-3.1-6.9-6.9c0-1.7,0.6-3.2,1.5-4.4c-1.6,1.3-2.5,3.2-2.5,5.4c0,3.8,3.1,6.9,6.9,6.9
			c2.2,0,4.1-1,5.4-2.5C30.2,58.7,28.6,59.3,27,59.3z"/>
	</g>
	<g>
		<circle class="st3" cx="108.2" cy="66.3" r="4"/>
		<path class="st4" d="M108.8,69.6c-2.2,0-4-1.8-4-4c0-0.9,0.3-1.8,0.9-2.4c-0.9,0.7-1.5,1.9-1.5,3.1c0,2.2,1.8,4,4,4
			c1.3,0,2.4-0.6,3.1-1.5C110.6,69.3,109.8,69.6,108.8,69.6z"/>
	</g>
	<g>
		<circle class="st3" cx="96.8" cy="34.7" r="2.6"/>
		<path class="st4" d="M97.4,36.7c-1.4,0-2.6-1.2-2.6-2.6c0-0.6,0.2-1.1,0.5-1.5c-0.7,0.5-1.1,1.2-1.1,2.1c0,1.4,1.2,2.6,2.6,2.6
			c0.9,0,1.7-0.4,2.1-1.1C98.5,36.5,98,36.7,97.4,36.7z"/>
	</g>
	<g>
		<defs>
			<circle id="SVGID_3_" cx="64" cy="64" r="64"/>
		</defs>
		<clipPath id="SVGID_4_">
			<use xlink:href="#SVGID_3_"  style="overflow:visible;"/>
		</clipPath>
		<g class="st5">
			<path class="st3" d="M117.1,74.8c0,0.6,0.1,1.2,0.2,1.8c-8.8,1.6-15.8,8.4-17.7,17.1c-1.3-0.3-2.6-0.4-4-0.4
				c-6.7,0-12.5,3.3-16,8.4c-2.3-5.3-6.5-9.3-14.5-9.3c-8.9,0-13.1,4.3-15.7,10.4c-3.4-5.7-9.6-9.6-16.8-9.6c-1.4,0-2.7,0.1-4,0.4
				c-1.9-8.7-8.9-15.5-17.7-17.1c0.1-0.6,0.2-1.2,0.2-1.8c0-6.2-5-11.3-11.1-11.5v36v19.9v8.9h20.4h4.4h19.9c0.1,0,0.3-0.2,0.4-0.3
				c0,0.1,0.1,0.3,0.2,0.3h48.8h13.6H128v-8.8v-8.5V63.3C121.9,63.6,117.1,68.6,117.1,74.8z"/>
			<g>
				<g>
					<path class="st4" d="M27.4,93.9c0.6-0.1,1.2-0.2,1.8-0.3c-2-7.1-7-12.9-13.7-15.7C21.5,81.3,25.9,87,27.4,93.9z"/>
					<path class="st4" d="M49.1,103.6c0.2-0.5,0.4-1,0.7-1.5c-2.5-3.2-5.9-5.8-9.7-7.4C43.8,96.8,46.9,99.9,49.1,103.6z"/>
					<path class="st4" d="M9.1,74.2c0,0.7-0.1,1.3-0.2,1.9c0.7,0.1,1.5,0.3,2.2,0.5c0.1-0.4,0.1-0.9,0.1-1.4c0-5.8-3.2-9.7-7.8-11.3
						C6.8,66,9.1,69.8,9.1,74.2z"/>
				</g>
				<g>
					<path class="st4" d="M101.4,94c-0.6-0.1-1.2-0.2-1.8-0.3c1.8-7.3,5.6-12.4,13.3-15.8C106.9,81.2,102.9,87.1,101.4,94z"/>
					<path class="st4" d="M80.2,103.1c-0.2-0.5-0.4-1-0.7-1.5c2.5-3.4,5.2-5.9,9.9-7.4C85.8,96.4,82.4,99.4,80.2,103.1z"/>
					<path class="st4" d="M119.1,73.8c0,0.7,0.1,1.5,0.2,2.2c-0.7,0.1-1.4,0.4-2,0.6c-0.1-0.5-0.1-1-0.1-1.6c0-6.1,3.5-9.5,7.8-11.2
						C121.7,66.3,119.1,68.9,119.1,73.8z"/>
				</g>
			</g>
		</g>
	</g>
	<path class="st6" d="M81.1,60.2l9.6,9.5c2.2,2.1,3.7,4.8,4.5,7.8l5,19.2c0.3,1.3-0.7,2.6-2,2.6l0,0c-2.1,0-3.9-1.2-4.8-3l-5.2-11
		c-1-2.1-3.1-3.4-5.5-3.4H78L81.1,60.2z"/>
	<path class="st6" d="M47.9,60.2l-9.6,9.5c-2.2,2.1-3.7,4.8-4.5,7.8l-5,19.2c-0.3,1.3,0.7,2.6,2,2.6l0,0c2.1,0,3.9-1.2,4.8-3l5.2-11
		c1-2.1,3.1-3.4,5.5-3.4h4.7L47.9,60.2z"/>
	<path class="st7" d="M41.7,66.2l6.2-6l3.2,21.7h-3.9C44.6,75.9,42.7,69.8,41.7,66.2z"/>
	<path class="st7" d="M87.3,66.2l-6.2-6L78,81.9h3.9C84.4,75.9,86.4,69.8,87.3,66.2z"/>
	<path class="st8" d="M86.1,45.4C83.1,28.9,68,13,64.7,13c-0.1,0-0.1,0-0.1,0c0,0,0,0,0,0c-3.3,0-18.3,16-21.3,32.5
		c-2.3,12.5,3.4,30.3,6.6,39.9c1.4,4.1,2,7.2,6.1,8.3c0,0,4.9,1.1,8.6,1.1c0.1,0,0.1,0,0.1,0c0,0,0,0,0.1,0c3.7,0,8.6-1.1,8.6-1.1
		c4.2-1.1,4.8-4.2,6.2-8.3C82.7,75.8,88.4,57.9,86.1,45.4z"/>
	<circle class="st9" cx="64.6" cy="44.8" r="12.8"/>
	<g>
		<path class="st10" d="M71,104.2c0,3.5-2.9,13.1-6.4,13.1c-3.5,0-6.4-9.6-6.4-13.1c0-3.5,2.9-4.9,6.4-4.9
			C68.2,99.3,71,100.7,71,104.2z"/>
		<path class="st11" d="M68.8,104c0,2.3-1.9,8.4-4.2,8.4c-2.3,0-4.2-6.2-4.2-8.4s1.9-3.2,4.2-3.2C66.9,100.8,68.8,101.7,68.8,104z"
			/>
		<path class="st12" d="M67.2,103.8c0,1.2-1.2,4.6-2.6,4.6c-1.4,0-2.6-3.3-2.6-4.6c0-1.2,1.2-1.7,2.6-1.7
			C66,102,67.2,102.5,67.2,103.8z"/>
	</g>
	<g>
		<defs>
			<circle id="SVGID_5_" cx="64.6" cy="44.8" r="12.5"/>
		</defs>
		<clipPath id="SVGID_6_">
			<use xlink:href="#SVGID_5_"  style="overflow:visible;"/>
		</clipPath>
		<polygon class="st13" points="71.3,38 78,44.6 78,58.6 65,58.6 58,51.6 		"/>
	</g>
	<line class="st14" x1="43" y1="56" x2="43" y2="56"/>
	<g>
		<defs>
			<path id="SVGID_7_" d="M86.1,45.4C83.1,28.9,68,13,64.7,13c-0.1,0-0.1,0-0.1,0c0,0,0,0,0,0c-3.3,0-18.3,16-21.3,32.5
				c-2.3,12.5,3.4,30.3,6.6,39.9c1.4,4.1,2,7.2,6.1,8.3c0,0,4.9,1.1,8.6,1.1c0.1,0,0.1,0,0.1,0c0,0,0,0,0.1,0c3.7,0,8.6-1.1,8.6-1.1
				c4.2-1.1,4.8-4.2,6.2-8.3C82.7,75.8,88.4,57.9,86.1,45.4z"/>
		</defs>
		<clipPath id="SVGID_8_">
			<use xlink:href="#SVGID_7_"  style="overflow:visible;"/>
		</clipPath>
		<polygon class="st15" points="67.3,65.5 82.2,80.5 78.5,93 70.5,95.5 65.5,95.5 65.5,65.5 		"/>
	</g>
	<path class="st16" d="M33.1,23.6l1,2.8c0,0.1,0.1,0.1,0.1,0.1l2.8,1c0.2,0.1,0.2,0.3,0,0.4l-2.8,1c-0.1,0-0.1,0.1-0.1,0.1l-1,2.8
		c-0.1,0.2-0.3,0.2-0.4,0l-1-2.8c0-0.1-0.1-0.1-0.1-0.1l-2.8-1c-0.2-0.1-0.2-0.3,0-0.4l2.8-1c0.1,0,0.1-0.1,0.1-0.1l1-2.8
		C32.8,23.4,33,23.4,33.1,23.6z"/>
	<path class="st16" d="M98,49.2l0.8,2.1c0,0,0.1,0.1,0.1,0.1l2.1,0.8c0.1,0.1,0.1,0.2,0,0.3l-2.1,0.8c0,0-0.1,0.1-0.1,0.1L98,55.4
		c-0.1,0.1-0.2,0.1-0.3,0L97,53.3c0,0-0.1-0.1-0.1-0.1l-2.1-0.8c-0.1-0.1-0.1-0.2,0-0.3l2.1-0.8c0,0,0.1-0.1,0.1-0.1l0.8-2.1
		C97.8,49.1,98,49.1,98,49.2z"/>
	<g>
		<g>
			<path class="st17" d="M64.6,53.8c-5,0-9-4.1-9-9c0-5,4.1-9,9-9c5,0,9,4.1,9,9C73.7,49.8,69.6,53.8,64.6,53.8z"/>
			<g>
				<path class="st18" d="M64.6,36.3c4.7,0,8.5,3.8,8.5,8.5c0,4.7-3.8,8.5-8.5,8.5c-4.7,0-8.5-3.8-8.5-8.5
					C56.1,40.1,59.9,36.3,64.6,36.3 M64.6,35.3c-5.3,0-9.5,4.3-9.5,9.5s4.3,9.5,9.5,9.5c5.3,0,9.5-4.3,9.5-9.5S69.9,35.3,64.6,35.3
					L64.6,35.3z"/>
			</g>
		</g>
	</g>
	<g>
		<g>
			<circle class="st19" cx="64.6" cy="44.8" r="5.1"/>
		</g>
	</g>
	<circle class="st20" cx="64.6" cy="44.7" r="1.6"/>
	<path class="st6" d="M63,64.2l-1.2,1.1c-0.5,0.4-0.7,1.1-0.6,1.7l1.2,28.3c0.3,2.5,4.1,2.5,4.4,0l1.2-28.3c0.1-0.6-0.2-1.3-0.6-1.7
		l-1.2-1.1C65.2,63.4,63.8,63.4,63,64.2z"/>
</g>
</svg>
